<svg width="40" height="40" viewBox="0 0 40 40" fill="none" xmlns="http://www.w3.org/2000/svg">
<path d="M26.0166 9.16666V26.1C26.0166 26.7667 25.8166 27.4167 25.4499 27.9667L20.8999 34.7333C20.1833 35.8167 18.3999 36.5833 16.8833 36.0167C15.2499 35.4667 14.1666 33.6333 14.5166 32L15.3833 26.55C15.4499 26.05 15.3166 25.6 15.0333 25.25C14.7499 24.9333 14.3333 24.7333 13.8833 24.7333H7.03328C5.71661 24.7333 4.58328 24.2 3.91661 23.2667C3.28328 22.3667 3.16661 21.2 3.58328 20.0167L7.68328 7.53333C8.19994 5.46666 10.4499 3.78333 12.6833 3.78333H19.1833C20.2999 3.78333 21.8666 4.16666 22.5833 4.88333L24.7166 6.53333C25.5333 7.16666 26.0166 8.13333 26.0166 9.16666Z" fill="#292D32"/>
<path d="M31.3167 29.35H33.0333C35.6167 29.35 36.6667 28.35 36.6667 25.8833V9.13332C36.6667 6.66666 35.6167 5.66666 33.0333 5.66666H31.3167C28.7334 5.66666 27.6833 6.66666 27.6833 9.13332V25.9C27.6833 28.35 28.7334 29.35 31.3167 29.35Z" fill="#292D32"/>
</svg>
