<svg width="20" height="20" viewBox="0 0 20 20" fill="none" xmlns="http://www.w3.org/2000/svg">
<path fill-rule="evenodd" clip-rule="evenodd" d="M11.0276 0.0213562C13.343 0.163731 15.5138 1.30273 17.1057 2.86886C18.987 4.8621 20 7.28248 20 10.13C20 12.408 19.1317 14.5436 17.6845 16.3945C16.2374 18.103 14.2113 19.3843 11.8959 19.8115C9.58042 20.2386 7.26496 19.9538 5.23893 18.8148C3.2129 17.6759 1.62102 15.9674 0.752726 13.8317C-0.115572 11.6961 -0.260288 9.27573 0.463294 7.1401C1.18688 4.8621 2.48932 3.01123 4.51535 1.72986C6.39666 0.448481 8.71213 -0.121019 11.0276 0.0213562ZM11.7512 18.3877C13.6325 17.9606 15.3691 16.964 16.6715 15.3979C17.8293 13.8317 18.5528 11.9809 18.4081 9.9876C18.4081 7.7096 17.5398 5.4316 15.9479 3.86548C14.5008 2.44173 12.7642 1.58748 10.7382 1.44511C8.85684 1.30273 6.83081 1.72986 5.23893 2.86886C3.64705 4.00786 2.48932 5.57398 1.91046 7.56723C1.33159 9.4181 1.33159 11.4114 2.19989 13.2622C3.06819 15.1131 4.37063 16.5369 6.10723 17.5335C7.84383 18.5301 9.86986 18.8148 11.7512 18.3877ZM10.0146 9.27573L13.4878 5.71635L14.5008 6.71298L11.0276 10.2724L14.5008 13.8317L13.4878 14.8284L10.0146 11.269L6.54138 14.8284L5.52837 13.8317L9.00156 10.2724L5.52837 6.71298L6.54138 5.71635L10.0146 9.27573Z" fill="#343434"/>
</svg>
