<svg width="21" height="21" viewBox="0 0 21 21" fill="none" xmlns="http://www.w3.org/2000/svg">
<path opacity="0.1" fill-rule="evenodd" clip-rule="evenodd" d="M10.5 3C8.51088 3 6.60322 3.79018 5.1967 5.1967C3.79018 6.60322 3 8.51088 3 10.5C3 12.4891 3.79018 14.3968 5.1967 15.8033C6.60322 17.2098 8.51088 18 10.5 18C12.4891 18 14.3968 17.2098 15.8033 15.8033C17.2098 14.3968 18 12.4891 18 10.5C18 8.51088 17.2098 6.60322 15.8033 5.1967C14.3968 3.79018 12.4891 3 10.5 3ZM0 10.5C0 4.701 4.701 0 10.5 0C16.299 0 21 4.701 21 10.5C21 16.299 16.299 21 10.5 21C4.701 21 0 16.299 0 10.5Z" fill="white"/>
<path fill-rule="evenodd" clip-rule="evenodd" d="M10.5 3.00001C8.56639 2.99587 6.70671 3.74268 5.31301 5.08301C5.02428 5.34997 4.64228 5.49287 4.24923 5.48096C3.85618 5.46904 3.48353 5.30326 3.21151 5.01931C2.93948 4.73535 2.78984 4.35593 2.7948 3.96274C2.79975 3.56954 2.95891 3.19402 3.23801 2.91701C3.67934 2.49368 4.15534 2.11101 4.66601 1.76901C6.39189 0.613156 8.42283 -0.00267131 10.5 8.71026e-06C10.8978 8.71026e-06 11.2794 0.158044 11.5607 0.439349C11.842 0.720653 12 1.10218 12 1.50001C12 1.89783 11.842 2.27936 11.5607 2.56067C11.2794 2.84197 10.8978 3.00001 10.5 3.00001Z" fill="white"/>
</svg>
