<svg width="50" height="50" viewBox="0 0 50 50" fill="none" xmlns="http://www.w3.org/2000/svg">
<path d="M24.9375 4.16667C13.4375 4.16667 4.10416 13.5 4.10416 25C4.10416 36.5 13.4375 45.8334 24.9375 45.8334C36.4375 45.8334 45.7708 36.5 45.7708 25C45.7708 13.5 36.4583 4.16667 24.9375 4.16667ZM31.1875 29.6458L25.1458 33.125C24.3958 33.5625 23.5625 33.7708 22.75 33.7708C21.9167 33.7708 21.1042 33.5625 20.3542 33.125C18.8542 32.25 17.9583 30.7083 17.9583 28.9583V21.9792C17.9583 20.25 18.8542 18.6875 20.3542 17.8125C21.8542 16.9375 23.6458 16.9375 25.1667 17.8125L31.2083 21.2917C32.7083 22.1667 33.6042 23.7083 33.6042 25.4583C33.6042 27.2083 32.7083 28.7708 31.1875 29.6458Z" fill="white"/>
</svg>
