<svg width="21" height="20" viewBox="0 0 21 20" fill="none" xmlns="http://www.w3.org/2000/svg">
<path d="M14.8164 6.5741C14.7502 6.50741 14.6715 6.45448 14.5848 6.41836C14.4981 6.38223 14.4051 6.36364 14.3112 6.36364C14.2173 6.36364 14.1242 6.38223 14.0375 6.41836C13.9508 6.45448 13.8721 6.50741 13.806 6.5741L8.50495 11.8819L6.2778 9.64781C6.20912 9.58146 6.12805 9.5293 6.03921 9.49429C5.95037 9.45928 5.8555 9.44212 5.76002 9.44377C5.66455 9.44542 5.57033 9.46586 5.48276 9.50392C5.39518 9.54198 5.31596 9.59692 5.24961 9.66559C5.18327 9.73427 5.1311 9.81534 5.09609 9.90417C5.06108 9.99301 5.04391 10.0879 5.04556 10.1833C5.04722 10.2788 5.06766 10.373 5.10572 10.4606C5.14378 10.5482 5.19872 10.6274 5.2674 10.6937L7.99975 13.4259C8.0659 13.4926 8.14459 13.5455 8.2313 13.5816C8.31801 13.6178 8.41102 13.6364 8.50495 13.6364C8.59888 13.6364 8.69188 13.6178 8.77859 13.5816C8.8653 13.5455 8.944 13.4926 9.01015 13.4259L14.8164 7.62001C14.8886 7.55339 14.9463 7.47252 14.9857 7.38252C15.0251 7.29251 15.0455 7.19532 15.0455 7.09706C15.0455 6.9988 15.0251 6.9016 14.9857 6.81159C14.9463 6.72159 14.8886 6.64073 14.8164 6.5741Z" fill="#343434"/>
<path fill-rule="evenodd" clip-rule="evenodd" d="M10.5 18.1818C15.0187 18.1818 18.6818 14.5187 18.6818 10C18.6818 5.48131 15.0187 1.81818 10.5 1.81818C5.98131 1.81818 2.31818 5.48131 2.31818 10C2.31818 14.5187 5.98131 18.1818 10.5 18.1818ZM10.5 20C16.0228 20 20.5 15.5228 20.5 10C20.5 4.47715 16.0228 0 10.5 0C4.97715 0 0.5 4.47715 0.5 10C0.5 15.5228 4.97715 20 10.5 20Z" fill="#343434"/>
</svg>
