<svg width="28" height="22" viewBox="0 0 28 22" fill="none" xmlns="http://www.w3.org/2000/svg">
<mask id="mask0_19_10616" style="mask-type:luminance" maskUnits="userSpaceOnUse" x="0" y="0" width="28" height="22">
<path d="M0 0.5H28V21.5H0V0.5Z" fill="white"/>
</mask>
<g mask="url(#mask0_19_10616)">
<path fill-rule="evenodd" clip-rule="evenodd" d="M0 0.5V21.5H28V0.5H0Z" fill="#2E42A5"/>
<mask id="mask1_19_10616" style="mask-type:luminance" maskUnits="userSpaceOnUse" x="0" y="0" width="28" height="22">
<path fill-rule="evenodd" clip-rule="evenodd" d="M0 0.5V21.5H28V0.5H0Z" fill="white"/>
</mask>
<g mask="url(#mask1_19_10616)">
<mask id="mask2_19_10616" style="mask-type:luminance" maskUnits="userSpaceOnUse" x="0" y="0" width="28" height="22">
<path d="M0 0.5H28V21.5H0V0.5Z" fill="white"/>
</mask>
<g mask="url(#mask2_19_10616)">
<path d="M-3.11816 19.9997L3.04331 22.6054L28.1394 3.33305L31.3894 -0.539246L24.8007 -1.41019L14.5646 6.89485L6.32552 12.4905L-3.11816 19.9997Z" fill="white"/>
<path d="M-2.27417 21.8253L0.864818 23.3375L30.2229 -0.899109H25.8154L-2.27417 21.8253Z" fill="#EE1312"/>
<path d="M31.1177 19.9997L24.9562 22.6054L-0.139851 3.33305L-3.38989 -0.539246L3.19893 -1.41019L13.435 6.89485L21.674 12.4905L31.1177 19.9997Z" fill="white"/>
<path d="M30.9075 21.3101L27.7685 22.8223L15.2675 12.4454L11.5612 11.2859L-3.70264 -0.525848H0.704865L15.9602 11.0056L20.0123 12.3959L30.9075 21.3101Z" fill="#EE1312"/>
<path fill-rule="evenodd" clip-rule="evenodd" d="M17.3054 -1.25H10.6943V7.5H-1.72607V14.5H10.6943V23.25H17.3054V14.5H29.774V7.5H17.3054V-1.25Z" fill="#EE1312"/>
<mask id="mask3_19_10616" style="mask-type:luminance" maskUnits="userSpaceOnUse" x="-2" y="-2" width="32" height="26">
<path fill-rule="evenodd" clip-rule="evenodd" d="M17.3054 -1.25H10.6943V7.5H-1.72607V14.5H10.6943V23.25H17.3054V14.5H29.774V7.5H17.3054V-1.25Z" fill="white"/>
</mask>
<g mask="url(#mask3_19_10616)">
<path d="M10.6943 -1.25V-3H8.94432V-1.25H10.6943ZM17.3054 -1.25H19.0554V-3H17.3054V-1.25ZM10.6943 7.5V9.25H12.4443V7.5H10.6943ZM-1.72607 7.5V5.75H-3.47607V7.5H-1.72607ZM-1.72607 14.5H-3.47607V16.25H-1.72607V14.5ZM10.6943 14.5H12.4443V12.75H10.6943V14.5ZM10.6943 23.25H8.94432V25H10.6943V23.25ZM17.3054 23.25V25H19.0554V23.25H17.3054ZM17.3054 14.5V12.75H15.5554V14.5H17.3054ZM29.774 14.5V16.25H31.524V14.5H29.774ZM29.774 7.5H31.524V5.75H29.774V7.5ZM17.3054 7.5H15.5554V9.25H17.3054V7.5ZM10.6943 0.5H17.3054V-3H10.6943V0.5ZM12.4443 7.5V-1.25H8.94432V7.5H12.4443ZM-1.72607 9.25H10.6943V5.75H-1.72607V9.25ZM0.0239234 14.5V7.5H-3.47607V14.5H0.0239234ZM10.6943 12.75H-1.72607V16.25H10.6943V12.75ZM12.4443 23.25V14.5H8.94432V23.25H12.4443ZM17.3054 21.5H10.6943V25H17.3054V21.5ZM15.5554 14.5V23.25H19.0554V14.5H15.5554ZM29.774 12.75H17.3054V16.25H29.774V12.75ZM28.024 7.5V14.5H31.524V7.5H28.024ZM17.3054 9.25H29.774V5.75H17.3054V9.25ZM15.5554 -1.25V7.5H19.0554V-1.25H15.5554Z" fill="white"/>
</g>
</g>
</g>
</g>
</svg>
