<svg width="110" height="283" viewBox="0 0 110 283" fill="none" xmlns="http://www.w3.org/2000/svg">
<g opacity="0.05">
<rect x="-5.32487" y="4.6525" width="255" height="255" rx="5" transform="matrix(-0.997737 -0.0672362 -0.0672362 0.997737 272.535 18.1115)" stroke="#2E42A5" stroke-width="10"/>
<path d="M188.403 128.286C188.694 123.966 187.258 119.708 184.409 116.448C181.561 113.189 177.534 111.194 173.215 110.903L147.158 109.147C142.839 108.856 138.581 110.292 135.321 113.141C132.061 115.989 130.066 120.016 129.775 124.335L127.58 156.906C127.289 161.225 128.726 165.483 131.574 168.743C134.422 172.003 138.449 173.998 142.768 174.289L168.825 176.045C173.144 176.336 177.402 174.899 180.662 172.051C183.922 169.203 185.917 165.176 186.208 160.857L188.403 128.286ZM107.242 163.898L121.803 155.234C121.758 154.62 121.756 154.003 121.797 153.382L123.571 127.064C123.613 126.439 123.698 125.827 123.825 125.229L110.558 114.69C109.393 113.764 107.997 113.175 106.522 112.985C105.046 112.796 103.546 113.013 102.185 113.614C100.824 114.215 99.6531 115.176 98.7989 116.395C97.9448 117.613 97.4399 119.042 97.3389 120.526L94.9254 156.341C94.8263 157.826 95.1349 159.309 95.8179 160.631C96.5009 161.953 97.5322 163.063 98.8004 163.841C100.069 164.619 101.525 165.036 103.013 165.046C104.501 165.056 105.963 164.659 107.242 163.898Z" fill="#2E42A5"/>
</g>
</svg>
