<svg width="175" height="283" viewBox="0 0 175 283" fill="none" xmlns="http://www.w3.org/2000/svg">
<g opacity="0.05">
<rect x="-102.034" y="23.1115" width="255" height="255" rx="5" transform="rotate(-3.85526 -102.034 23.1115)" stroke="#2E42A5" stroke-width="10"/>
<path d="M-12.9025 128.286C-13.1936 123.966 -11.7569 119.708 -8.90862 116.448C-6.0603 113.189 -2.03362 111.194 2.28558 110.903L28.3425 109.147C32.6617 108.856 36.9197 110.292 40.1796 113.141C43.4396 115.989 45.4345 120.016 45.7256 124.335L47.9205 156.906C48.2116 161.225 46.7749 165.483 43.9266 168.743C41.0783 172.003 37.0516 173.998 32.7324 174.289L6.67544 176.045C2.35623 176.336 -1.90169 174.899 -5.16165 172.051C-8.4216 169.203 -10.4165 165.176 -10.7076 160.857L-12.9025 128.286ZM68.2587 163.898L53.6973 155.234C53.7431 154.62 53.7452 154.003 53.7033 153.382L51.9298 127.064C51.8877 126.439 51.8028 125.827 51.6753 125.229L64.9426 114.69C66.1076 113.764 67.5034 113.175 68.9792 112.985C70.4549 112.796 71.9544 113.013 73.3156 113.614C74.6767 114.215 75.8477 115.176 76.7018 116.395C77.556 117.613 78.0608 119.042 78.1618 120.526L80.5754 156.341C80.6745 157.826 80.3658 159.309 79.6829 160.631C78.9999 161.953 77.9685 163.063 76.7003 163.841C75.4321 164.619 73.9753 165.036 72.4875 165.046C70.9996 165.056 69.5374 164.659 68.2587 163.898Z" fill="#2E42A5"/>
</g>
</svg>
