<svg width="196" height="219" viewBox="0 0 196 219" fill="none" xmlns="http://www.w3.org/2000/svg">
<path d="M15.8326 292.406C33.7137 291.175 47.6052 284.543 57.1213 272.696C64.1868 263.9 68.7531 252.409 70.6936 238.543C72.1092 228.312 71.9027 217.922 70.0818 207.756C60.5024 153.651 70.3638 125.974 80.3234 112.283C91.2437 97.2708 104.725 95.246 104.86 95.2274L104.738 94.3381C104.599 94.357 90.7728 96.4139 79.6191 111.725C73.189 120.552 68.859 132.029 66.7496 145.839C64.1245 163.025 64.9482 183.91 69.1977 207.913C71.0022 217.986 71.207 228.281 69.8048 238.418C66.6221 261.16 54.6643 288.833 15.7709 291.511L15.8326 292.406Z" fill="#D1D6F1"/>
<path d="M69.2662 115.592L69.9955 115.068C62.1086 104.077 66.8684 94.7524 72.2502 88.8658C74.6643 86.2333 77.4786 83.998 80.5892 82.2424C94.2524 74.4933 102.29 66.2198 104.478 57.652C106.159 51.0722 103.632 46.8875 103.523 46.7128L102.76 47.1848C102.784 47.2249 105.198 51.2556 103.599 57.4648C102.128 63.1782 96.8653 71.9793 80.1463 81.4614C76.9538 83.2636 74.0655 85.558 71.5878 88.26C65.9818 94.3919 61.0284 104.111 69.2662 115.592Z" fill="#D1D6F1"/>
<path d="M64.4386 63.9625C64.6816 65.7144 65.2675 67.4012 66.1626 68.9267C67.0577 70.4521 68.2446 71.7862 69.6554 72.8528C71.0663 73.9194 72.6734 74.6977 74.3851 75.1431C76.0968 75.5884 77.8794 75.6922 79.6312 75.4485C81.383 75.2047 83.0696 74.6183 84.5947 73.7226C86.1198 72.8269 87.4534 71.6395 88.5195 70.2283C89.5856 68.8171 90.3633 67.2096 90.808 65.4978C91.2527 63.7859 91.3558 62.0033 91.1115 60.2516C90.0867 52.8861 74.4352 38.1015 74.4352 38.1015C74.4352 38.1015 63.4138 56.597 64.4386 63.9625Z" fill="#E5E3FF"/>
<path d="M86.6783 28.296C86.9214 30.0479 87.5072 31.7347 88.4023 33.2602C89.2975 34.7856 90.4843 36.1197 91.8952 37.1863C93.306 38.2529 94.9132 39.0312 96.6249 39.4765C98.3365 39.9219 100.119 40.0257 101.871 39.782C103.623 39.5382 105.309 38.9518 106.834 38.0561C108.36 37.1604 109.693 35.973 110.759 34.5618C111.825 33.1505 112.603 31.5431 113.048 29.8313C113.492 28.1194 113.596 26.3368 113.351 24.5851C112.326 17.2196 96.6749 2.43495 96.6749 2.43495C96.6749 2.43495 85.6536 20.9305 86.6783 28.296Z" fill="#E5E3FF"/>
<path d="M41.2031 175.906C44.0592 177.256 47.2896 177.593 50.3631 176.863C53.4365 176.133 56.17 174.379 58.114 171.889C60.0581 169.399 61.0969 166.322 61.0598 163.163C61.0226 160.004 59.9116 156.952 57.9095 154.508C53.1522 148.701 32.7462 144.323 31.8796 144.139L31.3317 144.024L31.3376 144.583C31.3473 145.469 31.6261 166.337 36.3842 172.145C37.6898 173.742 39.3363 175.027 41.2031 175.906ZM51.5475 151.264C54.0421 152.438 56.1068 153.725 57.2151 155.077C59.4029 157.748 60.4404 161.178 60.0993 164.613C59.7582 168.048 58.0664 171.207 55.3961 173.395C52.7258 175.583 49.2958 176.62 45.8605 176.279C42.4253 175.938 39.2663 174.246 37.0784 171.576C32.9393 166.524 32.3258 148.567 32.2462 145.14C34.6949 145.69 44.7263 148.054 51.5475 151.264Z" fill="#D1D6F1"/>
<path d="M118.631 75.8099C116.941 76.3316 115.371 77.181 114.01 78.3095C112.648 79.438 111.523 80.8236 110.697 82.3871C109.871 83.9507 109.361 85.6616 109.197 87.4222C109.032 89.1827 109.216 90.9585 109.738 92.648C110.259 94.3375 111.109 95.9078 112.237 97.269C113.366 98.6303 114.751 99.756 116.315 100.582C117.878 101.408 119.589 101.917 121.35 102.082C123.11 102.247 124.886 102.063 126.576 101.541C133.681 99.3472 145.761 81.525 145.761 81.525C145.761 81.525 125.736 73.616 118.631 75.8099Z" fill="#E5E3FF"/>
<path d="M122.98 140.357C119.567 141.411 116.714 143.777 115.046 146.935C113.378 150.092 113.033 153.783 114.086 157.195C115.14 160.608 117.506 163.462 120.664 165.129C123.821 166.797 127.512 167.142 130.925 166.089C138.03 163.895 150.11 146.073 150.11 146.073C150.11 146.073 130.085 138.163 122.98 140.357Z" fill="#E5E3FF"/>
<path d="M87.7377 132.539C91.8042 134.453 101.392 134.261 101.833 134.251L102.392 134.239L102.258 133.695C102.143 133.23 99.4098 122.285 96.1494 119.791C94.5313 118.553 92.4877 118.009 90.4683 118.278C88.4488 118.547 86.6189 119.607 85.3811 121.225C84.1432 122.843 83.5989 124.887 83.8678 126.906C84.1367 128.926 85.1969 130.756 86.815 131.994C87.1025 132.207 87.4118 132.39 87.7377 132.539ZM101.244 133.36C98.8987 133.373 89.9807 133.286 87.3604 131.28C85.9327 130.187 84.9977 128.571 84.7609 126.788C84.5242 125.005 85.005 123.202 86.0977 121.773C87.1905 120.345 88.8056 119.409 90.5883 119.171C92.3709 118.933 94.175 119.413 95.6041 120.504C98.2257 122.51 100.643 131.093 101.244 133.36Z" fill="#D1D6F1"/>
</svg>
