<svg width="351" height="351" viewBox="0 0 351 351" fill="none" xmlns="http://www.w3.org/2000/svg">
<path fill-rule="evenodd" clip-rule="evenodd" d="M122.418 49.214C118.181 43.7126 115.62 37.0852 116.933 29.8412C120.714 8.96916 151.244 14.9272 156.159 25.7589C161.073 36.5905 157.518 63.3679 149.519 64.9171C146.33 65.5349 139.9 63.4009 133.562 59.288L134.815 87.6095L109.825 86.5207L122.418 49.214Z" fill="#915B3C"/>
<path fill-rule="evenodd" clip-rule="evenodd" d="M119.088 54.1526C117.197 40.814 108.932 31.4019 110.926 25.5703C112.256 21.6825 114.99 19.3523 119.13 18.5796C122.006 10.8829 129.084 7.87747 140.365 9.56341C157.286 12.0923 167.063 19.1106 161.108 33.2951C156.965 33.1052 152.104 31.4961 144.95 33.5435C142.681 34.1931 140.877 36.4475 139.54 40.3067L136.415 40.1635C133.848 35.3933 131.029 33.5545 127.958 34.6469C124.886 35.7393 123.916 38.6902 125.047 43.4997L122.413 54.3049L119.088 54.1526Z" fill="#191847"/>
<path fill-rule="evenodd" clip-rule="evenodd" d="M30.9892 201.796L153.427 207.025C162.835 207.427 169.695 214.85 168.749 223.605L158.903 314.754C157.957 323.509 149.564 330.28 140.156 329.878L17.718 324.649C8.30988 324.247 1.4498 316.824 2.39555 308.069L12.2419 216.92C13.1877 208.165 21.5811 201.394 30.9892 201.796ZM45.0273 230.264C42.6753 230.164 40.5769 231.857 40.3405 234.045L33.9189 293.491C33.6825 295.679 35.3975 297.535 37.7495 297.635L126.118 301.41C128.47 301.51 130.568 299.817 130.804 297.629L137.226 238.184C137.462 235.995 135.747 234.139 133.395 234.039L45.0273 230.264Z" fill="#C5CFD6"/>
<path fill-rule="evenodd" clip-rule="evenodd" d="M267.542 332.469C249.086 307.964 236.75 289.859 230.537 278.154C219.897 258.112 211.329 240.32 208.74 233.555C202.567 217.423 228.92 211.214 233.978 218.838C241.633 230.379 256.853 266.285 279.636 326.557L267.542 332.469Z" fill="#B28B67"/>
<path fill-rule="evenodd" clip-rule="evenodd" d="M225.096 323.669L195.316 231.423C188.659 214.551 229.903 205.554 235.242 213.509C247.364 231.568 273.426 301.813 277.038 307.194L225.096 323.669Z" fill="#2F3676"/>
<path fill-rule="evenodd" clip-rule="evenodd" d="M120.949 299.162C129.688 289.494 161.179 257.054 177.856 243.781C182.648 239.968 187.317 236.31 191.728 232.904C204.837 222.779 226.73 241.605 213.745 250.784C181.407 273.642 134.508 304.366 130.57 307.115C125.05 310.969 115.458 305.238 120.949 299.162Z" fill="#915B3C"/>
<path fill-rule="evenodd" clip-rule="evenodd" d="M123.798 294.326C120.835 296.268 118.866 297.867 117.891 299.122C116.705 300.65 115.242 303.036 113.502 306.282C115.369 307.38 132.14 317.253 163.816 335.9C168.31 332.566 169.276 329.906 166.714 327.921C164.151 325.935 162.04 324.262 160.382 322.902L144.684 299.237C144.382 298.782 143.705 298.663 143.173 298.972C143.164 298.978 143.155 298.983 143.146 298.989L138.954 301.566C135.449 301.186 132.881 300.516 131.251 299.556C129.926 298.776 128.491 297.191 126.946 294.802C126.353 293.884 125.004 293.634 123.933 294.243C123.887 294.269 123.842 294.297 123.798 294.326Z" fill="#E4E4E4"/>
<path fill-rule="evenodd" clip-rule="evenodd" d="M261.415 328.53C259.886 331.518 259.042 333.767 258.883 335.277C258.69 337.113 258.732 339.807 259.01 343.358C261.271 343.457 281.586 344.347 319.957 346.027C322.06 341.163 321.427 338.459 318.056 337.916C314.685 337.373 311.888 336.894 309.664 336.478L282.59 323.337C282.069 323.084 281.406 323.287 281.109 323.79C281.104 323.798 281.099 323.807 281.094 323.816L278.835 327.898C275.53 329.149 272.89 329.731 270.915 329.644C269.31 329.574 267.158 328.866 264.46 327.521C263.424 327.005 262.094 327.397 261.489 328.398C261.463 328.441 261.438 328.485 261.415 328.53Z" fill="#E4E4E4"/>
<path fill-rule="evenodd" clip-rule="evenodd" d="M178.05 234.318C145.952 227.936 124.459 223.592 113.571 221.287C82.5366 214.719 74.9141 198.655 83.7972 164.773L141.93 167.431C149.417 169.83 180.284 183.959 234.532 209.819C244.245 214.942 240.963 228.587 238.645 233.026C238.551 233.207 218.651 259.523 178.945 311.974L134.206 281.887L177.808 237.611C179.029 235.749 179.11 234.652 178.05 234.318Z" fill="#5C63AB"/>
<path fill-rule="evenodd" clip-rule="evenodd" d="M189.1 156.1L221.23 181.22C230.349 183.995 237.872 187.273 243.798 191.053C245.155 192.376 246.692 195 240.587 194.278C234.483 193.556 228.015 193.052 226.972 194.962C225.928 196.871 229.415 199.373 227.437 201.923C226.118 203.623 221.157 198.979 212.555 187.992L179.721 173.261L189.1 156.1ZM56.5983 150.817L79.1847 151.94C61.0386 193.144 51.2813 215.001 49.9127 217.511C46.8333 223.157 51.248 232.175 53.0394 236.994C45.3581 239.72 47.282 228.402 37.5769 231.995C28.7184 235.275 21.5931 241.628 12.3473 235.552C11.2106 234.805 10.15 232.141 13.5471 230.253C22.0105 225.551 34.3639 217.208 36.2056 214.359C38.7171 210.475 45.5146 189.294 56.5983 150.817Z" fill="#915B3C"/>
<path fill-rule="evenodd" clip-rule="evenodd" d="M128.61 70.4846L137.998 69.4512C169.526 98.1606 178.309 150.963 217.528 180.505L206.245 191.54C134.177 179.953 122.57 115.506 128.61 70.4846Z" fill="#2F3676"/>
<path fill-rule="evenodd" clip-rule="evenodd" d="M76.7822 174.4C113.445 176.081 140.413 177.318 157.687 178.11C161.384 178.279 161.185 173.306 160.901 170.788C157.629 141.73 136.674 109.607 140.796 68.6451L117.8 64.1879C95.6057 92.0376 85.3704 127.11 76.7822 174.4Z" fill="#DDE3E9"/>
<path fill-rule="evenodd" clip-rule="evenodd" d="M85.3 90.4642C82.0217 89.4093 79.5646 87.1876 77.9286 83.7993C70.8762 69.1933 74.7221 61.5074 84.0393 59.3518C93.3565 57.1961 100.904 62.8674 115.338 63.5319C116.123 63.568 116.838 63.6469 117.482 63.7684L124.704 64.4877C138.959 131.061 140.317 175.102 128.777 196.612L65.491 193.698C60.9269 201.651 56.6536 208.323 52.6711 213.713L35.4267 212.919C38.6915 164.076 55.3159 123.257 85.3 90.4642Z" fill="#2026A2"/>
<path fill-rule="evenodd" clip-rule="evenodd" d="M83.3324 160.071C83.7734 175.66 85.8912 187.056 89.6858 194.26L66.1043 193.178C71.4498 183.888 77.1925 172.853 83.3324 160.071Z" fill="black" fill-opacity="0.1"/>
</svg>
