<svg width="142" height="195" viewBox="0 0 142 195" fill="none" xmlns="http://www.w3.org/2000/svg">
<g opacity="0.25">
<path d="M29.1025 53.4212L10.9447 48.2552C8.41354 38.6691 8.2607 28.61 10.4994 18.9514C18.2075 34.8019 39.5261 38.1026 51.9901 50.5645C55.8478 54.481 58.7747 59.2155 60.5538 64.417C62.333 69.6185 62.9189 75.1536 62.268 80.6123L66.4373 93.3358C57.5764 92.8458 48.927 90.4406 41.0852 86.286C33.2433 82.1313 26.3954 76.326 21.0132 69.27C18.033 65.2817 15.5669 60.934 13.6732 56.3294C21.3208 55.3315 29.1025 53.4212 29.1025 53.4212Z" fill="#E6E5FF"/>
<path d="M106.462 148.953C112.435 147.948 117.501 146.704 117.501 146.704L106.297 143.517C105.892 137.135 104.601 131.075 100.952 125.771C109.484 128.251 117.364 132.579 124.034 138.449C130.703 144.318 135.998 151.585 139.542 159.732C143.086 167.879 144.791 176.707 144.538 185.588C144.285 194.469 142.079 203.185 138.076 211.116L129.064 201.215C123.994 199.089 119.468 195.85 115.82 191.737C112.173 187.624 109.497 182.743 107.993 177.455C105.494 168.413 106.49 158.468 106.462 148.953Z" fill="#E6E5FF"/>
<path d="M56.1682 11.1106C60.088 12.4454 63.9229 14.0177 67.6517 15.8187L59.1306 7.56296C60.5057 6.25641 62.1487 5.2648 63.9455 4.65701C65.7423 4.04922 67.6498 3.83982 69.5357 4.04333C74.001 4.6625 77.8473 7.86655 79.97 11.8436C81.9671 15.9158 82.7955 20.4622 82.363 24.9772C81.7897 33.175 78.5675 40.9643 73.1819 47.1714C67.7301 43.4166 62.3752 39.3116 58.5772 33.8949C54.7173 28.3901 52.6393 21.2815 54.5044 14.8222C54.8888 13.5155 55.4485 12.267 56.1682 11.1106Z" fill="#E6E5FF"/>
<path d="M34.3392 149.741L17.5067 144.952C14.1053 139.696 11.5505 133.939 9.93556 127.89C24.1996 138.243 44.5607 131.116 61.4246 136.241C66.672 137.879 71.4835 140.678 75.5024 144.429C79.5213 148.18 82.6447 152.787 84.641 157.909L94.3105 167.17C86.2628 170.91 77.4998 172.861 68.6255 172.889C59.7511 172.916 50.9762 171.02 42.9054 167.329C35.2183 163.707 28.38 158.507 22.8355 152.067C29.0073 151.05 34.3392 149.741 34.3392 149.741Z" fill="#E6E5FF"/>
<path d="M139.61 207.804C143.323 209.925 147.133 211.869 151.039 213.636C150.158 214.358 149.301 215.059 148.463 215.752C145.021 214.157 141.652 212.424 138.355 210.553C137.804 210.24 137.249 209.918 136.689 209.586C130.626 206.046 124.831 202.063 119.354 197.671C108.797 189.233 99.4674 179.366 91.6338 168.353C91.4904 168.164 91.3601 167.98 91.2259 167.786C89.093 164.751 87.0741 161.626 85.19 158.434C84.8053 157.792 84.4261 157.137 84.0507 156.492C83.0433 154.712 82.0729 152.916 81.1394 151.106C77.741 144.504 74.878 137.64 72.578 130.58C68.6455 118.505 66.3153 105.966 65.6473 93.285C65.5994 92.3849 65.5515 91.4848 65.5351 90.5824C65.5102 90.0516 65.4945 89.5169 65.4789 88.9823C65.1487 74.8638 66.8816 60.7727 70.6226 47.1549C70.7615 46.6537 70.9041 46.1617 71.0468 45.6698C71.3856 44.5013 71.7376 43.3383 72.1026 42.1807C72.1588 41.9819 72.2617 41.7994 72.4026 41.6483C72.5435 41.4972 72.7184 41.382 72.9128 41.3121C73.1072 41.2422 73.3154 41.2198 73.5202 41.2465C73.7251 41.2733 73.9206 41.3486 74.0905 41.4661C74.4253 41.6274 74.69 41.9048 74.8355 42.2467C74.981 42.5887 74.9974 42.9718 74.8815 43.3248C74.5863 44.2588 74.2948 45.2019 74.0349 46.1429C73.6899 47.2706 73.3804 48.4052 73.0931 49.5415C66.611 74.273 66.9066 100.294 73.9489 124.871C78.3343 140 85.2628 154.271 94.4375 167.074L94.4467 167.07C99.957 174.791 106.232 181.937 113.178 188.398C114.566 189.685 115.978 190.944 117.414 192.174C121.144 195.382 125.041 198.389 129.088 201.185C132.493 203.553 136 205.759 139.61 207.804Z" fill="white"/>
</g>
</svg>
