<svg width="148" height="213" viewBox="0 0 148 213" fill="none" xmlns="http://www.w3.org/2000/svg">
<path opacity="0.25" d="M119.176 179.804C121.91 176.519 125.838 174.456 130.094 174.067C134.35 173.678 138.586 174.996 141.871 177.731C145.155 180.465 147.219 184.393 147.608 188.649C147.996 192.905 146.678 197.141 143.944 200.426C138.249 207.265 113 212.406 113 212.406C113 212.406 113.481 186.643 119.176 179.804Z" fill="#EBEAFD"/>
<path opacity="0.25" d="M24.9397 0.364929C29.1168 -0.539389 33.482 0.252675 37.0751 2.56686C40.6682 4.88105 43.1948 8.52782 44.0991 12.7049C45.0034 16.882 44.2114 21.2472 41.8972 24.8403C39.583 28.4334 35.9362 30.96 31.7592 31.8643C23.0609 33.7475 0 22.2521 0 22.2521C0 22.2521 16.2414 2.24807 24.9397 0.364929Z" fill="#EBEAFD"/>
</svg>
