<svg width="319" height="458" viewBox="0 0 319 458" fill="none" xmlns="http://www.w3.org/2000/svg">
<path fill-rule="evenodd" clip-rule="evenodd" d="M229.308 80.4154C235.601 73.8252 240.286 65.5612 240.727 56.0031C241.996 28.4635 205.644 32.2862 197.156 45.6994C188.668 59.1126 185.566 94.2786 194.259 97.3087C197.725 98.5171 205.615 96.5723 213.93 92.0505L204.941 128.604L233.684 130.385L229.308 80.4154Z" fill="#B28B67"/>
<path fill-rule="evenodd" clip-rule="evenodd" d="M254.618 48.3163C255.681 47.3845 256.356 46 256.952 44.6825C257.571 43.3139 258.179 41.93 258.647 40.494C259.582 37.625 259.947 34.2797 258.208 31.8929C256.814 29.9789 254.517 29.0126 252.336 28.6941C250.883 28.4818 249.354 28.5997 247.897 28.9929C246.451 29.3831 245.147 30.2623 243.731 30.7689C244.017 27.6305 243.856 24.3171 242.626 21.5422C241.441 18.8724 239.267 17.2768 236.655 16.7232C233.975 16.1552 231.214 16.6492 228.628 17.8728C227.981 18.1792 227.338 18.5025 226.715 18.8752C226.194 19.1873 225.645 19.5684 225.062 19.6713C224.412 19.7863 224.139 19.3827 223.779 18.8718C223.357 18.2728 222.867 17.7375 222.339 17.257C220.004 15.1326 216.75 14.1112 213.675 15.0959C212.258 15.5495 210.838 16.3836 209.78 17.591C208.837 18.6672 208.058 20.4207 206.839 21.1343C206.322 21.4372 206.03 20.9728 205.627 20.6175C205.021 20.0836 204.452 19.5009 203.837 18.9799C202.973 18.248 202.014 17.6803 200.957 17.3473C199.41 16.8599 197.206 16.8085 196.518 18.9584C196.259 19.766 196.296 20.6499 196.262 21.4781C196.216 22.6155 196.174 23.7526 196.146 24.8895C196.125 25.7527 196.126 26.5877 196.19 27.4408C196.224 27.8956 196.393 28.7501 196.16 29.1883C195.87 29.736 194.843 29.3477 194.388 29.338C193.488 29.319 192.571 29.4255 191.7 29.7729C191.025 30.0422 190.302 30.4555 189.948 31.2085C189.731 31.671 189.722 32.1599 189.749 32.6519C189.78 33.2423 189.639 33.5452 189.505 34.1303C188.369 33.4323 184.35 31.7852 183.583 34.0091C183.328 34.7496 183.634 35.6247 183.869 36.2782C184.282 37.4245 184.87 38.4859 185.479 39.5012C186.749 41.6192 188.337 43.4778 190.087 45.0926C187.737 45.9905 186.823 49.0274 188.564 50.9843C189.333 51.8482 190.464 52.1025 191.548 52.1204C191.946 52.127 192.532 52.0046 192.835 52.0968C192.998 52.1463 193.161 52.3064 193.391 52.3379C194.903 52.5455 196.664 52.2719 198.191 52.0139C200.911 51.5542 203.565 50.3995 205.831 48.5264C206.413 48.0459 206.879 47.7778 207.587 47.8311C208.207 47.8777 208.796 48.0952 209.415 48.1517C211.05 48.3014 212.62 47.5567 214.203 47.0958C214.065 49.2577 214.396 51.6699 215.03 53.6638C215.546 55.2897 216.955 55.6121 218.349 55.8417C222.806 56.5764 227.38 56.3725 231.89 56.6701C227.412 57.4222 222.855 57.5573 218.397 58.4947C216.381 58.9183 217.727 60.3958 218.46 61.4072C219.668 63.0727 220.482 65.0922 220.972 67.196C223.421 64.4171 227.403 62.7389 230.651 63.8507C234.241 65.079 236.28 70.4824 233.513 74.0939C231.906 76.1903 229.338 76.874 227.175 77.6797C228.595 79.5352 228.707 82.1473 229.44 84.389C229.802 85.4944 230.342 86.7527 231.37 87.1962C231.75 87.3603 232.212 87.402 232.487 87.7594C232.828 88.202 232.87 88.6748 233.324 89.0656C235.138 90.6252 238.222 90.713 240.167 88.9559C241.925 87.3667 241.802 84.6645 240.67 82.8652C242.864 82.0851 246.81 81.1543 246.344 77.6793C250.921 77.6564 262.778 70.6506 257.288 64.6181C260.846 62.8531 264.44 58.2103 262.749 53.8043C261.448 50.4115 257.757 48.6943 254.618 48.3163Z" fill="#191847"/>
<path fill-rule="evenodd" clip-rule="evenodd" d="M279.611 289.874L186.101 284.446L154.658 444.469L293.855 452.549L279.611 289.874Z" fill="#C5CFD6"/>
<path fill-rule="evenodd" clip-rule="evenodd" d="M280.506 291.573L252.516 289.921L217.087 447.988L294.369 452.549L280.506 291.573Z" fill="black" fill-opacity="0.1"/>
<path fill-rule="evenodd" clip-rule="evenodd" d="M74.722 248.195C65.4108 241.215 47.7867 248.261 46.8316 257.317C43.9741 284.411 53.7635 413.614 54.1246 421.764C54.4858 429.915 67.3569 432.898 69.206 422.77C72.1483 406.656 80.3873 350.744 80.9009 324.65C81.1129 313.88 81.1988 303.614 81.1829 294.45C90.9708 318.677 106.395 353.455 127.457 398.784L142.139 392.956C135.246 354.103 129.128 326.594 123.788 310.426C114.644 282.744 105.837 258.974 101.962 250.551C95.8656 237.301 82.407 240.912 74.722 248.195Z" fill="#B28B67"/>
<path fill-rule="evenodd" clip-rule="evenodd" d="M146.446 371.443L108.323 250.014C98.1222 230.024 60.4722 251.132 63.411 262.55C70.083 288.472 109.513 373.447 111.5 381.17L146.446 371.443Z" fill="#2F3676"/>
<path fill-rule="evenodd" clip-rule="evenodd" d="M148.052 386.266C150.959 389.153 152.817 391.462 153.624 393.191C154.605 395.295 155.693 398.526 156.888 402.883C154.491 404 132.948 414.036 92.2585 432.991C87.9417 428.12 87.4873 424.617 90.8955 422.48C94.3037 420.344 97.1197 418.536 99.3437 417.058L123.022 389.429C123.477 388.897 124.278 388.846 124.81 389.315C124.819 389.323 124.828 389.331 124.837 389.339L128.993 393.209C133.085 393.239 136.178 392.767 138.273 391.791C139.974 390.999 141.998 389.204 144.343 386.408C145.243 385.335 146.843 385.216 147.917 386.141C147.964 386.181 148.009 386.223 148.052 386.266Z" fill="#E4E4E4"/>
<path fill-rule="evenodd" clip-rule="evenodd" d="M74.2138 414.123C75.1659 418.214 75.5317 421.252 75.3111 423.24C75.0428 425.657 74.2762 429.161 73.0114 433.751C70.4001 433.588 46.9313 432.123 2.60504 429.355C1.49643 422.746 2.94182 419.306 6.94124 419.034C10.9407 418.762 14.2672 418.499 16.9208 418.245L51.384 404.623C52.0472 404.361 52.7515 404.711 52.9571 405.404C52.9606 405.416 52.964 405.428 52.9672 405.44L54.4625 411.05C57.9087 413.106 60.7726 414.206 63.0541 414.348C64.9077 414.464 67.5569 413.82 71.0016 412.416C72.3235 411.877 73.7398 412.561 74.165 413.942C74.1833 414.002 74.1996 414.062 74.2138 414.123Z" fill="#E4E4E4"/>
<path fill-rule="evenodd" clip-rule="evenodd" d="M41.64 267.096C37.9347 301.555 44.9061 382.939 44.1001 390.527L77.6922 392.72C80.487 320.682 82.6409 284.323 84.154 283.643C86.4237 282.622 171.12 298.287 196.849 299.945C233.95 302.336 251.935 278.805 258.064 233.463L184.569 228.726C169.424 229.439 89.5939 240.909 59.9957 244.712C47.3242 246.341 42.6607 257.604 41.64 267.096Z" fill="#5C63AB"/>
<path fill-rule="evenodd" clip-rule="evenodd" d="M176.646 150.69L136.258 123.185C130.058 113.807 123.749 106.428 117.332 101.046C115.309 99.9799 111.657 99.1779 114.434 105.865C117.211 112.553 119.837 119.733 117.854 121.611C115.871 123.488 111.76 120.422 109.294 123.594C107.65 125.709 114.811 129.68 130.776 135.505L158.825 167.562L176.646 150.69ZM106.983 167.209L89.2459 155.094C87.7312 144.334 85.1324 138.802 81.4497 138.497C78.7638 136.931 82.2617 150.63 77.0129 149.123C71.7642 147.617 59.7489 136.54 57.2658 138.471C53.5921 141.329 55.5586 150.958 58.5663 155.879C64.1878 165.076 69.3004 168.426 82.3121 173.221C89.1153 175.729 96.2668 180.336 103.767 187.043L106.983 167.209Z" fill="#997659"/>
<path fill-rule="evenodd" clip-rule="evenodd" d="M199.568 147.484C184.374 146.348 164.45 141.724 144.354 126.1L133.716 145.213C146.976 161.526 166.596 175.486 185.011 176.121C199.522 176.621 208.888 158.951 199.568 147.484Z" fill="#2F3676"/>
<path fill-rule="evenodd" clip-rule="evenodd" d="M176.847 177.061C160.492 180.194 134.343 173.573 98.3993 157.197C86.9444 176.736 81.1059 190.816 80.884 199.437C111.115 219.091 137.803 228.705 160.43 230.684C158.192 244.743 158.386 258.27 162.57 270.888C171.171 296.828 239.932 277.746 261.712 283.777C280.769 237.199 255.874 216.168 259.121 185.788C262.677 152.52 242.699 99.6719 238.948 99.4303L204.749 97.2275C200.129 122.513 187.618 149.901 176.847 177.061Z" fill="#2E42A5"/>
</svg>
